<svg width="940" height="417" fill="none" xmlns="http://www.w3.org/2000/svg"><mask id="a" maskUnits="userSpaceOnUse" x="0" y="0" width="940" height="417"><rect width="940" height="417" rx="10" fill="#E8E8E8"/></mask><g mask="url(#a)"><path d="M-33-119H972v638H-33z"/><path fill="url(#paint0_linear)" d="M-25 0h982v424H-25z"/><g opacity=".6"><path d="M45 389v-12h8v12h10v-16h6l-20-18-20 18h6v16h10z" fill="#fff"/><circle cx="49" cy="373" r="69.5" stroke="#fff" stroke-width="5"/><path d="M77 100h-1v-2c0-2.76-2.24-5-5-5s-5 2.24-5 5v2h-1c-1.1 0-2 .9-2 2v10c0 1.1.9 2 2 2h12c1.1 0 2-.9 2-2v-10c0-1.1-.9-2-2-2zm-6 9c-1.1 0-2-.9-2-2s.9-2 2-2 2 .9 2 2-.9 2-2 2zm3.1-9h-6.2v-2c0-1.71 1.39-3.1 3.1-3.1 1.71 0 3.1 1.39 3.1 3.1v2z" fill="#fff"/><circle cx="71" cy="104" r="32" stroke="#fff" stroke-width="2"/><path d="M335 190h-4.17l3.24-3.24-1.41-1.42L328 190h-2v-2l4.66-4.66-1.42-1.41-3.24 3.24V181h-2v4.17l-3.24-3.24-1.42 1.41L324 188v2h-2l-4.66-4.66-1.41 1.42 3.24 3.24H315v2h4.17l-3.24 3.24 1.41 1.42L322 192h2v2l-4.66 4.66 1.42 1.41 3.24-3.24V201h2v-4.17l3.24 3.24 1.42-1.41L326 194v-2h2l4.66 4.66 1.41-1.42-3.24-3.24H335v-2z" fill="#fff"/><circle cx="325" cy="191" r="32" stroke="#fff" stroke-width="2"/><path d="M152.311 228.896h-16.332v10.207h16.332v-10.207zm4.402 2.031l-3.605 1.516v3.157l3.605 1.515h1.307v-6.188h-1.307z" fill="#fff"/><circle cx="147" cy="234" r="32" stroke="#fff" stroke-width="2"/><path d="M311 355c0-5-4-9-9-9s-9 4-9 9c0 3.1 1.6 5.9 4 7.5v2.5c0 1.3.8 2.4 2 2.8v.2c0 1.7 1.3 3 3 3s3-1.3 3-3v-.2c1.2-.4 2-1.5 2-2.8v-2.5c2.4-1.6 4-4.4 4-7.5zm-16 0c0-3.9 3.1-7 7-7s7 3.1 7 7c0 3.5-2.6 6.4-6 6.9v-2.5l1.7-1.7c.4-.4.4-1 0-1.4-.4-.4-1-.4-1.4 0l-1.3 1.3-1.3-1.3c-.4-.4-1-.4-1.4 0-.4.4-.4 1 0 1.4l1.7 1.7v2.5c-3.4-.5-6-3.4-6-6.9zm7 14c-.6 0-1-.4-1-1h2c0 .6-.4 1-1 1zm3-4c0 .6-.4 1-1 1h-4c-.6 0-1-.4-1-1v-1.5c.9.3 1.9.5 3 .5s2.1-.2 3-.5v1.5z" fill="#fff"/><circle cx="302" cy="359" r="32" stroke="#fff" stroke-width="2"/><path d="M56 304l12-168m51 243l152-11M89 315l45-52m-21 82.5L303 216" stroke="#fff" stroke-width="2" stroke-linecap="round"/></g></g><defs><linearGradient id="paint0_linear" x1="10.5" y1="274.5" x2="937" y2="274" gradientUnits="userSpaceOnUse"><stop stop-color="#1F3F68"/><stop offset=".998" stop-color="#1F3F68" stop-opacity=".37"/></linearGradient></defs></svg>